<mxfile host="Electron" agent="Mozilla/5.0 (X11; Linux x86_64) AppleWebKit/537.36 (KHTML, like Gecko) draw.io/27.0.2 Chrome/134.0.6998.205 Electron/35.3.0 Safari/537.36" version="27.0.2">
  <diagram name="Page-1" id="7_2nU4gWH4hnf_3eHgfe">
    <mxGraphModel dx="1354" dy="819" grid="1" gridSize="10" guides="1" tooltips="1" connect="1" arrows="1" fold="1" page="1" pageScale="1" pageWidth="850" pageHeight="1100" math="0" shadow="0">
      <root>
        <mxCell id="0" />
        <mxCell id="1" parent="0" />
        <mxCell id="nsdZTSzREaJ90RWsRAdq-21" value="" style="rounded=1;whiteSpace=wrap;html=1;fillColor=#F1F4FC;strokeColor=#6c8ebf;" vertex="1" parent="1">
          <mxGeometry x="800" y="302.5" width="340" height="147.5" as="geometry" />
        </mxCell>
        <mxCell id="nsdZTSzREaJ90RWsRAdq-2" value="" style="rounded=1;whiteSpace=wrap;html=1;fillColor=#FFF8F2;strokeColor=#d79b00;" vertex="1" parent="1">
          <mxGeometry x="100" y="225" width="590" height="305" as="geometry" />
        </mxCell>
        <mxCell id="nsdZTSzREaJ90RWsRAdq-3" value="&lt;b&gt;&lt;font style=&quot;font-size: 17px;&quot;&gt;Subscriber Layer&lt;/font&gt;&lt;/b&gt;" style="text;html=1;align=center;verticalAlign=middle;whiteSpace=wrap;rounded=0;fontColor=#D79B00;" vertex="1" parent="1">
          <mxGeometry x="260" y="500" width="270" height="30" as="geometry" />
        </mxCell>
        <mxCell id="nsdZTSzREaJ90RWsRAdq-4" value="&lt;b&gt;&lt;font style=&quot;font-size: 14px;&quot;&gt;Supervisor&lt;/font&gt;&lt;/b&gt;" style="shape=process;whiteSpace=wrap;html=1;backgroundOutline=1;" vertex="1" parent="1">
          <mxGeometry x="410" y="200" width="120" height="60" as="geometry" />
        </mxCell>
        <mxCell id="nsdZTSzREaJ90RWsRAdq-5" value="&lt;b&gt;&lt;font style=&quot;font-size: 14px;&quot;&gt;Replication&lt;/font&gt;&lt;/b&gt;&lt;div&gt;&lt;b&gt;&lt;font style=&quot;font-size: 14px;&quot;&gt;client&lt;/font&gt;&lt;/b&gt;&lt;/div&gt;" style="shape=process;whiteSpace=wrap;html=1;backgroundOutline=1;" vertex="1" parent="1">
          <mxGeometry x="250" y="340" width="120" height="60" as="geometry" />
        </mxCell>
        <mxCell id="nsdZTSzREaJ90RWsRAdq-6" value="&lt;b&gt;&lt;font style=&quot;font-size: 14px;&quot;&gt;Handler&lt;/font&gt;&lt;/b&gt;" style="shape=process;whiteSpace=wrap;html=1;backgroundOutline=1;" vertex="1" parent="1">
          <mxGeometry x="515" y="340" width="120" height="60" as="geometry" />
        </mxCell>
        <mxCell id="nsdZTSzREaJ90RWsRAdq-7" value="&lt;span style=&quot;font-size: 14px;&quot;&gt;&lt;b&gt;Relation&lt;/b&gt;&lt;/span&gt;&lt;div&gt;&lt;span style=&quot;font-size: 14px;&quot;&gt;&lt;b&gt;store&lt;/b&gt;&lt;/span&gt;&lt;/div&gt;" style="shape=process;whiteSpace=wrap;html=1;backgroundOutline=1;" vertex="1" parent="1">
          <mxGeometry x="515" y="452.5" width="120" height="60" as="geometry" />
        </mxCell>
        <mxCell id="nsdZTSzREaJ90RWsRAdq-12" value="" style="endArrow=classic;html=1;rounded=0;" edge="1" parent="1" source="nsdZTSzREaJ90RWsRAdq-5" target="nsdZTSzREaJ90RWsRAdq-6">
          <mxGeometry width="50" height="50" relative="1" as="geometry">
            <mxPoint x="445" y="430" as="sourcePoint" />
            <mxPoint x="495" y="380" as="targetPoint" />
          </mxGeometry>
        </mxCell>
        <mxCell id="nsdZTSzREaJ90RWsRAdq-30" value="&lt;b&gt;DB-spec&amp;nbsp;&lt;/b&gt;&lt;b style=&quot;background-color: light-dark(#ffffff, var(--ge-dark-color, #121212)); color: light-dark(rgb(0, 0, 0), rgb(255, 255, 255));&quot;&gt;message&lt;/b&gt;" style="edgeLabel;html=1;align=center;verticalAlign=middle;resizable=0;points=[];" vertex="1" connectable="0" parent="nsdZTSzREaJ90RWsRAdq-12">
          <mxGeometry x="-0.0741" y="-1" relative="1" as="geometry">
            <mxPoint as="offset" />
          </mxGeometry>
        </mxCell>
        <mxCell id="nsdZTSzREaJ90RWsRAdq-13" value="" style="endArrow=classic;startArrow=classic;html=1;rounded=0;" edge="1" parent="1" source="nsdZTSzREaJ90RWsRAdq-7" target="nsdZTSzREaJ90RWsRAdq-6">
          <mxGeometry width="50" height="50" relative="1" as="geometry">
            <mxPoint x="345" y="430" as="sourcePoint" />
            <mxPoint x="395" y="380" as="targetPoint" />
          </mxGeometry>
        </mxCell>
        <mxCell id="nsdZTSzREaJ90RWsRAdq-14" value="" style="endArrow=classic;html=1;rounded=0;dashed=1;strokeWidth=2;strokeColor=#999999;" edge="1" parent="1" source="nsdZTSzREaJ90RWsRAdq-4" target="nsdZTSzREaJ90RWsRAdq-5">
          <mxGeometry width="50" height="50" relative="1" as="geometry">
            <mxPoint x="510" y="400" as="sourcePoint" />
            <mxPoint x="560" y="350" as="targetPoint" />
          </mxGeometry>
        </mxCell>
        <mxCell id="nsdZTSzREaJ90RWsRAdq-15" value="&lt;b&gt;&lt;font style=&quot;font-size: 12px; color: rgb(153, 153, 153);&quot;&gt;&amp;lt;&amp;lt; supervises &amp;gt;&amp;gt;&lt;/font&gt;&lt;/b&gt;" style="edgeLabel;html=1;align=center;verticalAlign=middle;resizable=0;points=[];" vertex="1" connectable="0" parent="nsdZTSzREaJ90RWsRAdq-14">
          <mxGeometry x="-0.038" y="1" relative="1" as="geometry">
            <mxPoint as="offset" />
          </mxGeometry>
        </mxCell>
        <mxCell id="nsdZTSzREaJ90RWsRAdq-16" value="&lt;b&gt;&lt;font style=&quot;font-size: 14px;&quot;&gt;Application&lt;/font&gt;&lt;/b&gt;" style="shape=process;whiteSpace=wrap;html=1;backgroundOutline=1;" vertex="1" parent="1">
          <mxGeometry x="590" y="40" width="120" height="60" as="geometry" />
        </mxCell>
        <mxCell id="nsdZTSzREaJ90RWsRAdq-18" value="" style="endArrow=classic;html=1;rounded=0;dashed=1;strokeWidth=2;strokeColor=#999999;" edge="1" parent="1" source="nsdZTSzREaJ90RWsRAdq-16" target="nsdZTSzREaJ90RWsRAdq-4">
          <mxGeometry width="50" height="50" relative="1" as="geometry">
            <mxPoint x="458" y="270" as="sourcePoint" />
            <mxPoint x="398" y="350" as="targetPoint" />
          </mxGeometry>
        </mxCell>
        <mxCell id="nsdZTSzREaJ90RWsRAdq-19" value="&lt;b&gt;&lt;font style=&quot;font-size: 12px; color: rgb(153, 153, 153);&quot;&gt;&amp;lt;&amp;lt; supervises &amp;gt;&amp;gt;&lt;/font&gt;&lt;/b&gt;" style="edgeLabel;html=1;align=center;verticalAlign=middle;resizable=0;points=[];" vertex="1" connectable="0" parent="nsdZTSzREaJ90RWsRAdq-18">
          <mxGeometry x="-0.038" y="1" relative="1" as="geometry">
            <mxPoint as="offset" />
          </mxGeometry>
        </mxCell>
        <mxCell id="nsdZTSzREaJ90RWsRAdq-20" value="&lt;b&gt;&lt;font style=&quot;font-size: 14px;&quot;&gt;Publisher&lt;/font&gt;&lt;/b&gt;" style="shape=process;whiteSpace=wrap;html=1;backgroundOutline=1;" vertex="1" parent="1">
          <mxGeometry x="830" y="340" width="120" height="60" as="geometry" />
        </mxCell>
        <mxCell id="nsdZTSzREaJ90RWsRAdq-1" value="&lt;b&gt;&lt;font style=&quot;font-size: 14px;&quot;&gt;DB&lt;/font&gt;&lt;/b&gt;" style="shape=cylinder3;whiteSpace=wrap;html=1;boundedLbl=1;backgroundOutline=1;size=15;" vertex="1" parent="1">
          <mxGeometry x="130" y="325" width="70" height="90" as="geometry" />
        </mxCell>
        <mxCell id="nsdZTSzREaJ90RWsRAdq-24" value="&lt;b&gt;&lt;font style=&quot;font-size: 17px; color: rgb(108, 142, 191);&quot;&gt;Publisher Layer&lt;/font&gt;&lt;/b&gt;" style="text;html=1;align=center;verticalAlign=middle;whiteSpace=wrap;rounded=0;fontColor=#D79B00;" vertex="1" parent="1">
          <mxGeometry x="835" y="420" width="270" height="30" as="geometry" />
        </mxCell>
        <mxCell id="nsdZTSzREaJ90RWsRAdq-25" value="" style="endArrow=classic;html=1;rounded=0;dashed=1;strokeWidth=2;strokeColor=#999999;" edge="1" parent="1" source="nsdZTSzREaJ90RWsRAdq-16" target="nsdZTSzREaJ90RWsRAdq-20">
          <mxGeometry width="50" height="50" relative="1" as="geometry">
            <mxPoint x="626" y="110" as="sourcePoint" />
            <mxPoint x="514" y="210" as="targetPoint" />
          </mxGeometry>
        </mxCell>
        <mxCell id="nsdZTSzREaJ90RWsRAdq-26" value="&lt;b&gt;&lt;font style=&quot;font-size: 12px; color: rgb(153, 153, 153);&quot;&gt;&amp;lt;&amp;lt; supervises &amp;gt;&amp;gt;&lt;/font&gt;&lt;/b&gt;" style="edgeLabel;html=1;align=center;verticalAlign=middle;resizable=0;points=[];" vertex="1" connectable="0" parent="nsdZTSzREaJ90RWsRAdq-25">
          <mxGeometry x="-0.038" y="1" relative="1" as="geometry">
            <mxPoint as="offset" />
          </mxGeometry>
        </mxCell>
        <mxCell id="nsdZTSzREaJ90RWsRAdq-27" value="" style="endArrow=classic;html=1;rounded=0;" edge="1" parent="1" source="nsdZTSzREaJ90RWsRAdq-6" target="nsdZTSzREaJ90RWsRAdq-20">
          <mxGeometry width="50" height="50" relative="1" as="geometry">
            <mxPoint x="435" y="380" as="sourcePoint" />
            <mxPoint x="525" y="380" as="targetPoint" />
          </mxGeometry>
        </mxCell>
        <mxCell id="nsdZTSzREaJ90RWsRAdq-31" value="&lt;b&gt;Core-spec message&lt;/b&gt;" style="edgeLabel;html=1;align=center;verticalAlign=middle;resizable=0;points=[];" vertex="1" connectable="0" parent="nsdZTSzREaJ90RWsRAdq-27">
          <mxGeometry x="-0.0462" relative="1" as="geometry">
            <mxPoint as="offset" />
          </mxGeometry>
        </mxCell>
        <mxCell id="nsdZTSzREaJ90RWsRAdq-28" value="" style="endArrow=classic;html=1;rounded=0;" edge="1" parent="1" source="nsdZTSzREaJ90RWsRAdq-1" target="nsdZTSzREaJ90RWsRAdq-5">
          <mxGeometry width="50" height="50" relative="1" as="geometry">
            <mxPoint x="435" y="380" as="sourcePoint" />
            <mxPoint x="525" y="380" as="targetPoint" />
          </mxGeometry>
        </mxCell>
        <mxCell id="nsdZTSzREaJ90RWsRAdq-29" value="" style="endArrow=classic;html=1;rounded=0;" edge="1" parent="1" source="nsdZTSzREaJ90RWsRAdq-20" target="nsdZTSzREaJ90RWsRAdq-32">
          <mxGeometry width="50" height="50" relative="1" as="geometry">
            <mxPoint x="645" y="380" as="sourcePoint" />
            <mxPoint x="840" y="380" as="targetPoint" />
          </mxGeometry>
        </mxCell>
        <mxCell id="nsdZTSzREaJ90RWsRAdq-32" value="&lt;b&gt;&lt;font style=&quot;font-size: 14px;&quot;&gt;Target&lt;/font&gt;&lt;/b&gt;" style="rounded=0;whiteSpace=wrap;html=1;" vertex="1" parent="1">
          <mxGeometry x="1010" y="340" width="95" height="60" as="geometry" />
        </mxCell>
      </root>
    </mxGraphModel>
  </diagram>
</mxfile>
